# xmcd
#
# Track frame offsets:
#	150
#	50820
#	86877
#	124445
#	144247
#	176467
#
# Disc length: 3061 seconds
#
# Revision: 1
# Processed by: cddbd v1.4PL0 Copyright (c) Steve Scherf et al.
# Submitted via: EasyCDDAExtractor 5.0.7
#
DISCID=550bf306
DTITLE=Various Artist - Tan Co Giao Duyen 3 - Mau Tim Hoa Sim
DYEAR=1900
DGENRE=VongCo
TTITLE0=Le Thuy and Minh Vuong - Mau Tim Hoa Sim
TTITLE1=Phuong Hong Thuy and Vuong Linh - Tien Em Lay Chong
TTITLE2=Phuong Hong Thuy - Ai Ra Xu Hue
TTITLE3=Phuong Hong Thuy - May Lang Thang
TTITLE4=Phuong Hong Thuy and Le Tuan - Kiep Cam Ca
TTITLE5=Vuong Linh and Cam Tien - Bep Lua Chieu Ly Biet
EXTD=
EXTT0=
EXTT1=
EXTT2=
EXTT3=
EXTT4=
EXTT5=
PLAYORDER=
